<svg width="33" height="32" viewBox="0 0 33 32" fill="none" xmlns="http://www.w3.org/2000/svg">
<path d="M0 21.9865C2.43463 26.0652 6.28046 29.204 10.8637 30.7299C11.8644 30.9129 12.229 30.2953 12.229 29.7649C12.229 29.5453 12.2254 29.1573 12.2204 28.6381C12.2147 28.0367 12.2073 27.2594 12.202 26.3639C6.63894 27.5721 5.46518 23.6824 5.46518 23.6824C4.55539 21.373 3.24411 20.7578 3.24411 20.7578C1.42822 19.5166 3.38163 19.5411 3.38163 19.5411C5.38905 19.6835 6.44495 21.6026 6.44495 21.6026C8.22892 24.6585 11.1265 23.7757 12.2659 23.265C12.4476 21.9721 12.9633 21.0906 13.5354 20.5909C9.09451 20.0862 4.42524 18.3698 4.42524 10.706C4.42524 8.52297 5.20489 6.73777 6.48424 5.33933C6.27797 4.83348 5.59164 2.80027 6.67946 0.0463454C6.67946 0.0463454 8.35907 -0.491424 12.1799 2.09675C13.7748 1.65352 15.4864 1.43129 17.1868 1.42392C18.8849 1.43129 20.5964 1.65352 22.1937 2.09675C26.0122 -0.491424 27.6881 0.0463454 27.6881 0.0463454C28.7796 2.80027 28.0932 4.83348 27.887 5.33933C29.1688 6.73777 29.9435 8.52297 29.9435 10.706C29.9435 18.3895 25.2669 20.0801 20.8113 20.5749C21.5295 21.1925 22.1692 22.4129 22.1692 24.2791C22.1692 26.0667 22.1582 27.6236 22.1509 28.655C22.1473 29.1658 22.1446 29.5477 22.1446 29.7649C22.1446 30.3002 22.5044 30.9227 23.5197 30.7275C27.1709 29.5087 30.3536 27.2669 32.7268 24.3418C29.0599 28.8623 23.4605 31.7514 17.1862 31.7514C9.88086 31.7514 3.4903 27.8346 0 21.9865Z" fill="white"/>
</svg>
