<svg width="21" height="21" viewBox="0 0 21 21" fill="none" xmlns="http://www.w3.org/2000/svg">
<path d="M19.4455 0H1.55039C0.693164 0 0 0.676758 0 1.51348V19.4824C0 20.3191 0.693164 21 1.55039 21H19.4455C20.3027 21 21 20.3191 21 19.4865V1.51348C21 0.676758 20.3027 0 19.4455 0ZM6.23027 17.8951H3.11309V7.8709H6.23027V17.8951ZM4.67168 6.50508C3.6709 6.50508 2.86289 5.69707 2.86289 4.70039C2.86289 3.70371 3.6709 2.8957 4.67168 2.8957C5.66836 2.8957 6.47637 3.70371 6.47637 4.70039C6.47637 5.69297 5.66836 6.50508 4.67168 6.50508ZM17.8951 17.8951H14.782V13.0225C14.782 11.8617 14.7615 10.3646 13.1619 10.3646C11.5418 10.3646 11.2957 11.632 11.2957 12.9404V17.8951H8.18672V7.8709H11.1727V9.24082H11.2137C11.6279 8.45332 12.6451 7.6207 14.1586 7.6207C17.3127 7.6207 17.8951 9.69609 17.8951 12.3949V17.8951Z" fill="white"/>
</svg>
