<svg width="203" height="64" viewBox="0 0 203 64" fill="none" xmlns="http://www.w3.org/2000/svg">
<circle cx="32" cy="32" r="31.5" stroke="white"/>
<circle r="8" transform="matrix(-1 0 0 1 32 32)" fill="white"/>
<line x1="32" y1="31.5" x2="203" y2="31.5" stroke="white"/>
<path d="M136.832 19.256C135.83 19.256 135.003 19.1013 134.352 18.792C133.702 18.4827 133.216 18.056 132.896 17.512C132.587 16.968 132.432 16.3547 132.432 15.672H132.944C132.944 16.6107 133.259 17.3627 133.888 17.928C134.528 18.4933 135.51 18.776 136.832 18.776C138.048 18.776 138.976 18.5253 139.616 18.024C140.267 17.512 140.592 16.8347 140.592 15.992C140.592 15.2773 140.342 14.6693 139.84 14.168C139.35 13.656 138.582 13.352 137.536 13.256L136.096 13.128C135.158 13.0427 134.416 12.744 133.872 12.232C133.339 11.7093 133.072 11.0267 133.072 10.184C133.072 9.608 133.2 9.08533 133.456 8.616C133.723 8.136 134.128 7.752 134.672 7.464C135.227 7.176 135.931 7.032 136.784 7.032C137.67 7.032 138.395 7.192 138.96 7.512C139.536 7.832 139.963 8.25333 140.24 8.776C140.518 9.29867 140.656 9.86933 140.656 10.488H140.144C140.144 9.95467 140.027 9.464 139.792 9.016C139.568 8.55733 139.206 8.19467 138.704 7.928C138.214 7.65067 137.574 7.512 136.784 7.512C136.027 7.512 135.414 7.63467 134.944 7.88C134.475 8.11467 134.128 8.43467 133.904 8.84C133.691 9.24533 133.584 9.69333 133.584 10.184C133.584 10.92 133.808 11.496 134.256 11.912C134.715 12.328 135.355 12.5733 136.176 12.648L137.616 12.776C138.384 12.84 139.024 13.0267 139.536 13.336C140.059 13.6347 140.448 14.0133 140.704 14.472C140.971 14.9307 141.104 15.4373 141.104 15.992C141.104 16.6107 140.939 17.1707 140.608 17.672C140.288 18.1627 139.814 18.552 139.184 18.84C138.555 19.1173 137.771 19.256 136.832 19.256ZM150.655 19.256C149.663 19.256 148.804 19.0747 148.079 18.712C147.354 18.3493 146.756 17.8747 146.287 17.288C145.818 16.6907 145.471 16.04 145.247 15.336C145.023 14.6213 144.911 13.9227 144.911 13.24V13.048C144.911 12.312 145.023 11.5867 145.247 10.872C145.482 10.1573 145.834 9.512 146.303 8.936C146.772 8.34933 147.359 7.88533 148.063 7.544C148.767 7.20267 149.588 7.032 150.527 7.032C151.434 7.032 152.239 7.20267 152.943 7.544C153.647 7.87467 154.218 8.344 154.655 8.952C155.092 9.56 155.359 10.2693 155.455 11.08H154.943C154.847 10.3227 154.596 9.67733 154.191 9.144C153.786 8.61067 153.263 8.20533 152.623 7.928C151.994 7.65067 151.295 7.512 150.527 7.512C149.695 7.512 148.959 7.66667 148.319 7.976C147.69 8.27467 147.156 8.69067 146.719 9.224C146.292 9.74667 145.967 10.3493 145.743 11.032C145.53 11.704 145.423 12.408 145.423 13.144C145.423 13.8267 145.53 14.504 145.743 15.176C145.956 15.848 146.276 16.456 146.703 17C147.14 17.5333 147.684 17.9653 148.335 18.296C148.996 18.616 149.77 18.776 150.655 18.776C151.85 18.776 152.852 18.4667 153.663 17.848C154.484 17.2293 154.991 16.3493 155.183 15.208H155.695C155.567 16.0187 155.279 16.728 154.831 17.336C154.383 17.944 153.807 18.4187 153.103 18.76C152.399 19.0907 151.583 19.256 150.655 19.256ZM159.823 19V7.288H163.135C163.999 7.288 164.692 7.44267 165.215 7.752C165.748 8.06133 166.132 8.472 166.367 8.984C166.612 9.496 166.735 10.0507 166.735 10.648V10.808C166.735 11.3627 166.633 11.88 166.431 12.36C166.228 12.8293 165.903 13.224 165.455 13.544C165.017 13.864 164.441 14.0613 163.727 14.136L167.791 19H167.151L163.119 14.168H160.335V19H159.823ZM163.167 7.768H160.335V13.688H163.167C163.924 13.688 164.521 13.5547 164.959 13.288C165.407 13.0213 165.727 12.664 165.919 12.216C166.121 11.768 166.223 11.272 166.223 10.728C166.223 10.184 166.121 9.688 165.919 9.24C165.727 8.792 165.407 8.43467 164.959 8.168C164.521 7.90133 163.924 7.768 163.167 7.768ZM176.39 19.256C175.44 19.256 174.598 19.0853 173.862 18.744C173.136 18.392 172.523 17.928 172.022 17.352C171.531 16.7653 171.158 16.1147 170.902 15.4C170.646 14.6853 170.518 13.96 170.518 13.224V13.032C170.518 12.2747 170.651 11.544 170.918 10.84C171.184 10.1253 171.568 9.48 172.07 8.904C172.582 8.328 173.2 7.87467 173.926 7.544C174.651 7.20267 175.472 7.032 176.39 7.032C177.307 7.032 178.123 7.20267 178.838 7.544C179.563 7.87467 180.176 8.328 180.678 8.904C181.19 9.48 181.574 10.1253 181.83 10.84C182.096 11.544 182.23 12.2747 182.23 13.032V13.24C182.23 13.976 182.102 14.7013 181.846 15.416C181.6 16.12 181.227 16.7653 180.726 17.352C180.235 17.928 179.627 18.392 178.902 18.744C178.176 19.0853 177.339 19.256 176.39 19.256ZM176.39 18.776C177.254 18.776 178.016 18.6213 178.678 18.312C179.339 17.992 179.894 17.5653 180.342 17.032C180.8 16.488 181.142 15.88 181.366 15.208C181.6 14.536 181.718 13.848 181.718 13.144C181.718 12.408 181.595 11.704 181.35 11.032C181.115 10.36 180.768 9.76267 180.31 9.24C179.851 8.70667 179.291 8.28533 178.63 7.976C177.968 7.66667 177.222 7.512 176.39 7.512C175.558 7.512 174.811 7.66667 174.15 7.976C173.488 8.28533 172.923 8.70667 172.454 9.24C171.995 9.76267 171.643 10.36 171.398 11.032C171.152 11.704 171.03 12.408 171.03 13.144C171.03 13.848 171.147 14.536 171.382 15.208C171.616 15.88 171.958 16.488 172.406 17.032C172.864 17.5653 173.424 17.992 174.086 18.312C174.758 18.6213 175.526 18.776 176.39 18.776ZM186.711 19V7.32H187.223V18.52H192.695V19H186.711ZM196.475 19V7.32H196.987V18.52H202.459V19H196.475Z" fill="white"/>
</svg>
