<svg width="1440" height="900" fill="none" xmlns="http://www.w3.org/2000/svg"><g clip-path="url(#a)"><path fill="#0B0B0B" d="M0 0h1440v900H0z"/><path d="M319.169 749.65 174.141 857.221l168.079-61.95-23.051-45.621z" fill="url(#b)"/><path d="M329 513.571V491h8.164L329 513.571zM299 401.006l59.067 32.175v-6.243L299 401.006zM374.395 307.842l-9.124 53.785h3.842l5.282-53.785zM462.757 100.864l30.254 22.091 15.367 4.322-45.621-26.413zM856.062 94.621l-49.943-29.773 41.299 17.288 8.644 12.486zM1380.47 156.571l12.96 7.203 20.65-22.571-33.61 15.368zM888.582 742.034 842 724.266 895.305 670l-6.723 72.034zM983.322 742.927l4.802-33.136 21.606 1.441-26.408 31.695zM843.096 841.373l-119.576-85.96 5.762-6.243 113.814 92.203zM1035.67 802.475l-9.13 8.644 12.97-1.441-3.84-7.203zM1234.96 852.899l-128.7-36.978 112.37 8.644 16.33 28.334zM1187.9 850.497l-75.4 22.571L1192.22 899l-4.32-48.503zM1339.17 724.198l9.12-34.576h21.61l-30.73 34.576zM1216.53 264 1205 295.695 1234.77 264h-18.24zM1345.41 403.887l4.32 34.576 30.26-15.367-34.58-19.209zM1097.62 660.808l9.6 17.288 22.09 12.486-31.69-29.774z" fill="#830000"/><path d="M316.169 751.65 171.141 859.221l168.079-61.95-23.051-45.621z" fill="url(#c)"/><path d="M327 514.571V492h8.164L327 514.571zM297 402.006l59.067 32.175v-6.243L297 402.006zM372.395 308.842l-9.124 53.785h3.842l5.282-53.785zM460.757 101.864l30.254 22.091 15.367 4.322-45.621-26.413zM854.062 95.621l-49.943-29.773 41.299 17.288 8.644 12.486zM1378.47 157.571l12.96 7.203 20.65-22.571-33.61 15.368zM886.582 743.034 840 725.266 893.305 671l-6.723 72.034zM981.322 743.927l4.802-33.136 21.606 1.441-26.408 31.695zM841.096 842.373l-119.576-85.96 5.762-6.243 113.814 92.203zM1033.67 803.475l-9.13 8.644 12.97-1.441-3.84-7.203zM1232.96 853.899l-128.7-36.978 112.37 8.644 16.33 28.334zM1185.9 851.497l-75.4 22.571L1190.22 900l-4.32-48.503zM1337.17 725.198l9.12-34.576h21.61l-30.73 34.576zM1214.53 265 1203 296.695 1232.77 265h-18.24zM1343.41 404.887l4.32 34.576 30.26-15.367-34.58-19.209zM1095.62 661.808l9.6 17.288 22.09 12.486-31.69-29.774z" fill="#1565B0"/><path d="m1394.88 327.091 11.04 19.689 27.37-6.723-38.41-12.966z" fill="#4B4B4B"/><path d="M319.169 750.65 174.141 858.221l168.079-61.95-23.051-45.621z" fill="url(#d)"/><path d="M319.169 750.65 174.141 858.221l168.079-61.95-23.051-45.621z" fill="url(#e)"/><path d="m476.684 777.062 8.644 8.644 3.841-14.887-12.485 6.243z" fill="#454545"/><path d="M215.441 693.983v11.045h5.282l-5.282-11.045z" fill="#727272"/><path d="m219.762 597.458-8.163 17.288 75.875-28.333-67.712 11.045z" fill="#000"/><path d="M2.35 770.685a.5.5 0 0 0-.502-.865l.502.865zm62.49-37.509a.5.5 0 0 0 .502.864l-.502-.864zm4.102-1.23a.5.5 0 1 0-.503-.864l.503.864zm62.489-37.508a.5.5 0 1 0 .503.864l-.503-.864zm4.102-1.23a.5.5 0 1 0-.503-.864l.503.864zm62.489-37.508a.5.5 0 1 0 .503.864l-.503-.864zM.551 771.732l1.8-1.047-.503-.865-1.8 1.047.503.865zm64.791-37.692 3.6-2.094-.503-.864-3.6 2.094.503.864zm66.592-38.738 3.599-2.094-.503-.864-3.599 2.094.503.864zm66.591-38.738 1.8-1.047-.503-.864-1.8 1.047.503.864z" fill="#fff"/><path d="M119.396 546.073v4.803h6.723l-6.723-4.803zM242.334 562.401l-7.684 8.164h7.684v-8.164z" fill="#727272"/><path d="m219.283 467.317 3.842 26.412L254.819 475l-35.536-7.683z" fill="#171717"/><path d="m272.587 431.78-17.768 18.728 27.853 4.323-10.085-23.051z" fill="#181919"/><path d="M329 514.571V492h8.164L329 514.571z" fill="#6D8585"/><path d="m189.988 464.915-87.881-113.813 97.966 109.491-10.085 4.322z" fill="#040404"/><path d="m299 402.006 59.067 32.175v-6.243L299 402.006z" fill="#1B1B1B"/><path d="m299 402.006 59.067 32.175v-6.243L299 402.006z" fill="#1B1B1B"/><path d="m374.395 308.842-9.124 53.785h3.842l5.282-53.785z" fill="#727272"/><path d="m374.395 308.842-9.124 53.785h3.842l5.282-53.785z" fill="#727272"/><path d="M266.344 263.701v20.649h52.345l-52.345-20.649z" fill="#1B1B1B"/><path d="m17.588 230.085 71.073 39.859-48.503-35.057-22.57-4.802z" fill="#4A4A49"/><path d="m34.395 174.379-72.514 73.474 81.638-67.232-9.124-6.242z" fill="#272727"/><path d="m51.203 162.373 5.763-25.452 26.893 7.684-32.656 17.768z" fill="#444445"/><path d="m391.203 195.028-25.932-6.723 45.621-64.83-19.689 71.553z" fill="#010101"/><path d="m-41 49.52 182.006 28.333L-22.271 1.977-41 49.52z" fill="url(#f)"/><path d="m462.757 101.864 30.254 22.091 15.367 4.322-45.621-26.413z" fill="#454040"/><path d="m462.757 101.864 30.254 22.091 15.367 4.322-45.621-26.413zM499.254 98.503l-12.005 7.683h8.644l3.361-7.683z" fill="#454040"/><path d="M654.848 251.215 615.47 261.78l-18.729 15.847 58.107-26.412z" fill="#252525"/><path d="m682.22 175.339-14.407 81.158h3.842l10.565-81.158z" fill="#0C0B1C"/><path d="m752.334 140.763-15.368 7.203 44.661 9.605-29.293-16.808z" fill="#2D2C2C"/><path d="m797.955 246.413 13.446 13.446-7.203-13.446h-6.243z" fill="#2E2E2E"/><path d="m856.062 95.621-49.943-29.773 41.299 17.288 8.644 12.486z" fill="#222"/><path d="m921.853 74.492-5.282 30.734h5.282V74.492z" fill="#000"/><path d="m1047.67 96.582-33.13 20.65h33.13v-20.65z" fill="#212122"/><path d="m1042.39 158.051 70.59-110.452" stroke="#8A8A8A" stroke-linecap="round"/><path d="m1084.65 112.429 76.84-137.344L1446.26-35l-361.61 147.429z" fill="url(#g)"/><path d="m1084.65 112.429 76.84-137.344L1446.26-35l-361.61 147.429z" fill="url(#h)"/><path d="M1192.7 167.655h12.01l11.52-9.604-23.53 9.604z" fill="#3D3D3D"/><path d="m1380.47 157.571 12.96 7.203 20.65-22.571-33.61 15.368z" fill="#727272"/><path d="m1380.47 157.571 12.96 7.203 20.65-22.571-33.61 15.368z" fill="#727272"/><path d="m1395.84 22.627-14.41-12.005 14.41-5.283v17.288z" fill="#252525"/><path d="m1476.03 127.797-121.97 82.598 125.34-80.197-3.37-2.401z" fill="#000"/><path d="M888.582 743.034 842 725.266 895.305 671l-6.723 72.034z" fill="#5A5A5A"/><path d="M888.582 743.034 842 725.266 895.305 671l-6.723 72.034zM983.322 743.927l4.802-33.136 21.606 1.441-26.408 31.695z" fill="#5A5A5A"/><path d="m983.322 743.927 4.802-33.136 21.606 1.441-26.408 31.695z" fill="#5A5A5A"/><path d="m843.096 842.373-119.576-85.96 5.762-6.243 113.814 92.203z" fill="#424242"/><path d="m843.096 842.373-119.576-85.96 5.762-6.243 113.814 92.203z" fill="#424242"/><path d="M644.763 818.362v9.124l14.887-20.169-14.887 11.045z" fill="#232721"/><path d="m643.802 864.463-5.762 32.176h24.491l-18.729-32.176zM610.186 857.26l22.09 31.215 2.882-23.531-24.972-7.684z" fill="#1F1F1F"/><path d="m1009.25 820.763-17.284 39.859 28.334-6.724-11.05-33.135z" fill="#000"/><path d="m1035.67 803.475-9.13 8.644 12.97-1.441-3.84-7.203z" fill="#797878"/><path d="m1234.96 853.899-128.7-36.978 112.37 8.644 16.33 28.334zM1187.9 851.497l-75.4 22.571L1192.22 900l-4.32-48.503z" fill="#2D2D2D"/><path d="m1187.9 851.497-75.4 22.571L1192.22 900l-4.32-48.503z" fill="#2D2D2D"/><path d="M1319.48 765.057v-57.628l54.27 52.825-54.27 4.803z" fill="#3A3A3A"/><path d="m1339.17 725.198 9.12-34.576h21.61l-30.73 34.576z" fill="#595959"/><path d="m1339.17 725.198 9.12-34.576h21.61l-30.73 34.576z" fill="#595959"/><path d="m1224.4 591.215-20.17 18.249 48.02 7.203-27.85-25.452z" fill="#606060"/><path d="m1232.08 586.893 53.3 34.096-75.39-9.605 22.09-24.491zM1083.69 511.977l13.93 15.368 178.64-172.402-192.57 157.034z" fill="#000"/><path d="M1216.53 265 1205 296.695 1234.77 265h-18.24z" fill="#505050"/><path d="M1216.53 265 1205 296.695 1234.77 265h-18.24z" fill="#505050"/><path d="m1267.14 401.526 4.8 8.163h8.16l-12.96-8.163z" fill="#C4C4C4"/><path d="m1345.41 404.887 4.32 34.576 30.26-15.367-34.58-19.209z" fill="#3E3E3E"/><path d="m1345.41 404.887 4.32 34.576 30.26-15.367-34.58-19.209z" fill="#3E3E3E"/><path d="m1389.11 440.424 2.4 12.966h11.53l-13.93-12.966z" fill="#000"/><path d="m1097.62 661.808 9.6 17.288 22.09 12.486-31.69-29.774z" fill="#282828"/><path d="m1373.27 568.644-5.29 10.085h24.98l-19.69-10.085z" fill="#454545"/><path d="m1421.77 533.588-11.05 5.762 12.97-1.921-1.92-3.841z" fill="#626161"/><g filter="url(#i)"><circle cx="275" cy="198" r="118" fill="#C4C4C4" fill-opacity=".5"/></g></g><defs><linearGradient id="b" x1="329.254" y1="768.379" x2="185.667" y2="853.859" gradientUnits="userSpaceOnUse"><stop stop-color="#1579D6"/><stop offset="1" stop-color="#C4C4C4" stop-opacity="0"/></linearGradient><linearGradient id="c" x1="326.254" y1="770.379" x2="182.667" y2="855.859" gradientUnits="userSpaceOnUse"><stop stop-color="#1579D6"/><stop offset="1" stop-color="#C4C4C4" stop-opacity="0"/></linearGradient><linearGradient id="d" x1="329.254" y1="769.379" x2="185.667" y2="854.859" gradientUnits="userSpaceOnUse"><stop stop-color="#656566"/><stop offset="1" stop-color="#C4C4C4" stop-opacity="0"/></linearGradient><linearGradient id="e" x1="329.254" y1="769.379" x2="185.667" y2="854.859" gradientUnits="userSpaceOnUse"><stop stop-color="#656566"/><stop offset="1" stop-color="#C4C4C4" stop-opacity="0"/></linearGradient><linearGradient id="f" x1="141.486" y1="77.373" x2="-45.322" y2="23.588" gradientUnits="userSpaceOnUse"><stop stop-color="#6F6F6F"/><stop offset="1" stop-color="#C4C4C4" stop-opacity="0"/></linearGradient><linearGradient id="g" x1="1087.05" y1="111.949" x2="1305.07" y2="-27.797" gradientUnits="userSpaceOnUse"><stop stop-color="#2F2F2F"/><stop offset="1" stop-color="#C4C4C4" stop-opacity="0"/></linearGradient><linearGradient id="h" x1="1087.05" y1="111.949" x2="1305.07" y2="-27.797" gradientUnits="userSpaceOnUse"><stop stop-color="#2F2F2F"/><stop offset="1" stop-color="#C4C4C4" stop-opacity="0"/></linearGradient><clipPath id="a"><path fill="#fff" d="M0 0h1440v900H0z"/></clipPath><filter id="i" x="-371" y="-448" width="1292" height="1292" filterUnits="userSpaceOnUse" color-interpolation-filters="sRGB"><feFlood flood-opacity="0" result="BackgroundImageFix"/><feBlend in="SourceGraphic" in2="BackgroundImageFix" result="shape"/><feGaussianBlur stdDeviation="264" result="effect1_foregroundBlur_101_523"/></filter></defs></svg>